<?xml version="1.0" standalone="no"?>
<!DOCTYPE svg PUBLIC "-//W3C//DTD SVG 20010904//EN"
 "http://www.w3.org/TR/2001/REC-SVG-20010904/DTD/svg10.dtd">
<svg version="1.0" xmlns="http://www.w3.org/2000/svg"
 width="1200.000000pt" height="1200.000000pt" viewBox="0 0 1200.000000 1200.000000"
 preserveAspectRatio="xMidYMid meet">

<g transform="translate(0.000000,1200.000000) scale(0.100000,-0.100000)"
fill="#000000" stroke="none">
<path d="M0 6000 l0 -6000 6000 0 6000 0 0 6000 0 6000 -6000 0 -6000 0 0
-6000z m6178 3267 l-3 -332 -34 -70 c-57 -116 -179 -215 -287 -232 l-34 -6 0
-123 0 -124 120 0 120 0 0 -65 0 -65 -302 2 -303 3 -3 62 -3 62 122 3 123 3
-1 108 c-1 59 -2 113 -2 121 -1 8 -16 17 -35 20 -102 19 -236 128 -284 229
-37 79 -42 124 -42 435 l0 302 426 0 425 0 -3 -333z m250 139 c3 -227 0 -236
-78 -236 l-50 0 0 208 c0 115 3 212 7 216 4 4 32 6 63 4 l55 -3 3 -189z m242
-48 c-1 -178 -4 -253 -14 -281 -31 -86 -105 -159 -188 -186 l-38 -12 -2 -312
-3 -312 -60 0 -60 0 0 365 0 365 65 6 c75 6 98 16 134 59 40 48 46 90 46 328
l0 222 60 0 60 0 0 -242z m-857 -2871 l97 98 -217 217 -218 218 53 52 52 53
218 -218 217 -217 215 215 c118 118 217 215 220 215 3 0 29 -23 58 -52 l52
-51 -212 -214 c-117 -118 -215 -216 -217 -219 -3 -3 33 -43 79 -89 l85 -85
1520 1519 1520 1520 53 -50 c34 -31 50 -54 45 -62 -4 -6 -685 -691 -1513
-1520 -828 -829 -1506 -1511 -1508 -1515 -1 -4 36 -45 83 -92 l85 -85 313 313
312 312 53 -52 52 -53 -312 -312 -313 -313 350 -350 350 -350 -53 -52 -52 -53
-350 350 -350 350 -97 -98 -98 -97 1530 -1530 1530 -1530 -53 -52 -52 -53
-1530 1530 -1530 1530 -97 -98 -98 -97 238 -238 237 -237 -52 -53 -53 -52
-237 237 -238 238 -238 -238 -237 -237 -53 52 -52 53 237 237 238 238 -85 85
c-47 47 -88 84 -93 82 -4 -1 -689 -684 -1522 -1517 l-1515 -1515 -55 55 -55
55 1520 1520 1520 1520 -85 85 c-46 46 -88 81 -92 77 -4 -4 -153 -152 -330
-330 l-322 -322 -56 55 -55 55 330 330 330 330 -330 330 -330 330 52 52 53 53
330 -330 330 -330 98 98 97 97 -1530 1530 -1530 1530 52 53 53 52 1530 -1530
1530 -1530 98 97z m-2978 -59 l2 -28 -169 0 -168 0 0 30 0 30 167 -2 167 -3 1
-27z m6830 0 l2 -28 -169 0 -168 0 0 30 0 30 167 -2 167 -3 1 -27z m-6900
-169 c77 -21 145 -119 145 -208 l0 -31 -185 0 -185 0 0 -25 c0 -123 71 -215
167 -215 39 0 115 30 144 56 17 16 52 9 46 -10 -6 -19 -96 -75 -140 -87 -144
-39 -312 50 -348 184 -14 54 -7 153 16 197 33 66 96 120 165 141 38 11 130 10
175 -2z m6830 0 c77 -21 145 -119 145 -208 l0 -31 -185 0 -185 0 0 -25 c0
-123 71 -215 167 -215 39 0 115 30 144 56 17 16 52 9 46 -10 -6 -19 -96 -75
-140 -87 -144 -39 -312 50 -348 184 -14 54 -7 153 16 197 33 66 96 120 165
141 38 11 130 10 175 -2z m-3880 -3131 l2 -28 -169 0 -168 0 0 30 0 30 167 -2
167 -3 1 -27z m985 -73 l0 -95 85 0 c78 0 85 -2 85 -20 0 -18 -7 -20 -85 -20
l-85 0 0 -200 c0 -200 0 -201 25 -225 29 -30 49 -31 100 -5 46 24 76 20 54 -7
-42 -51 -161 -67 -237 -33 -71 32 -82 68 -82 288 l0 182 -30 0 c-23 0 -30 4
-30 20 0 16 7 20 30 20 l30 0 0 79 0 79 43 7 c23 4 49 11 57 16 36 20 40 11
40 -86z m-1055 -96 c77 -21 145 -119 145 -208 l0 -31 -185 0 -185 0 0 -25 c0
-123 71 -215 167 -215 39 0 115 30 144 56 17 16 52 9 46 -10 -6 -19 -96 -75
-140 -87 -144 -39 -312 50 -348 184 -14 54 -7 153 16 197 33 66 96 120 165
141 38 11 130 10 175 -2z m596 -7 c39 -20 59 -18 59 5 0 9 8 13 22 11 20 -3
22 -9 22 -71 1 -63 0 -67 -22 -67 -14 0 -26 8 -32 24 -21 55 -98 85 -170 66
-44 -12 -65 -40 -56 -75 7 -28 40 -50 124 -82 140 -52 184 -94 184 -177 0 -54
-12 -78 -55 -109 -68 -51 -152 -60 -239 -27 -47 18 -54 18 -64 5 -6 -8 -21
-15 -33 -15 -20 0 -21 5 -21 75 0 71 1 75 23 75 15 0 26 -9 35 -30 21 -47 94
-85 163 -85 67 0 99 22 99 66 0 34 -21 50 -115 86 -162 61 -227 140 -195 237
28 85 180 134 271 88z"/>
<path d="M5452 9223 c3 -228 5 -252 24 -294 109 -236 431 -244 552 -14 27 50
27 51 30 303 l3 252 -306 0 -307 0 4 -247z"/>
<path d="M6005 6462 c-5 -4 -48 -47 -95 -95 l-85 -87 85 -85 85 -85 97 97 98
98 -82 82 c-86 87 -87 87 -103 75z"/>
<path d="M6200 6095 l-95 -95 88 -87 87 -88 97 97 98 98 -85 85 c-46 47 -87
85 -90 85 -3 0 -48 -43 -100 -95z"/>
<path d="M5705 6162 c-5 -4 -48 -47 -95 -95 l-85 -87 85 -85 85 -85 97 97 98
98 -82 82 c-86 87 -87 87 -103 75z"/>
<path d="M5900 5795 l-95 -95 88 -87 87 -88 97 97 98 98 -85 85 c-46 47 -87
85 -90 85 -3 0 -48 -43 -100 -95z"/>
<path d="M2623 6216 c-35 -16 -58 -52 -72 -115 l-9 -41 114 0 114 0 0 35 c0
41 -20 94 -42 112 -24 20 -71 24 -105 9z"/>
<path d="M9453 6216 c-35 -16 -58 -52 -72 -115 l-9 -41 114 0 114 0 0 35 c0
41 -20 94 -42 112 -24 20 -71 24 -105 9z"/>
<path d="M5503 2916 c-35 -16 -58 -52 -72 -115 l-9 -41 114 0 114 0 0 35 c0
41 -20 94 -42 112 -24 20 -71 24 -105 9z"/>
</g>
</svg>
